<svg width="651" height="340" viewBox="0 0 651 340" fill="none" xmlns="http://www.w3.org/2000/svg">
<path fill-rule="evenodd" clip-rule="evenodd" d="M166.846 40.5423C175.435 40.5423 182.381 44.0945 187.682 51.1989C190.826 55.3479 193.037 60.6149 194.317 67H170.679C170.07 62.42 169.163 58.7435 167.96 55.9705C165.521 50.2446 162.022 47.3816 157.462 47.3816C154.069 47.3816 150.941 48.6541 148.078 51.1989C145.321 53.6378 143.465 56.9779 142.511 61.2193V67H119.607V19.7062C119.607 14.8286 118.812 11.2764 117.222 9.04962C115.737 6.82286 113.139 5.70948 109.428 5.70948V2.36935C112.715 2.68746 116.002 2.84652 119.289 2.84652C128.514 2.84652 136.255 2.10426 142.511 0.619751V55.6524C144.738 50.7748 147.972 47.0635 152.213 44.5187C156.455 41.8678 161.333 40.5423 166.846 40.5423ZM82.2397 67L60.9177 12.0716C59.8573 12.1777 58.0547 12.2307 55.5098 12.2307C52.965 12.2307 51.1094 12.1777 49.943 12.0716L28.535 66.9999H32.2127L44.058 36.2479L55.3337 67H82.2397ZM18.0119 94L13.6786 105.118C9.75531 115.298 5.19576 120.865 0 121.819V125C3.18108 124.682 7.21045 124.523 12.0881 124.523C18.0261 124.523 24.6004 124.682 31.8108 125V121.819C27.1452 121.607 23.593 120.759 21.1542 119.274C18.8214 117.684 17.655 114.927 17.655 111.003C17.655 106.986 19.0557 101.319 21.857 94H18.0119ZM65.1713 94H92.7205L99.5678 111.639C100.946 115.139 102.537 117.684 104.339 119.274C106.142 120.865 107.892 121.713 109.588 121.819V125C103.226 124.682 95.1673 124.523 85.412 124.523C74.5963 124.523 66.5376 124.682 61.2358 125V121.819C65.2652 121.607 68.1281 121.13 69.8247 120.387C71.5213 119.539 72.3696 118.108 72.3696 116.093C72.3696 114.184 71.7334 111.639 70.4609 108.458L65.1713 94ZM119.607 94H142.511V119.592C146.01 122.455 149.934 123.887 154.281 123.887C160.113 123.887 164.461 120.599 167.324 114.025C169.423 109.204 170.753 102.529 171.313 94H194.818C193.441 103.515 190.32 110.932 185.456 116.252C178.669 123.568 169.921 127.227 159.212 127.227C151.895 127.227 145.957 125.371 141.398 121.66C137.58 121.342 133.763 121.766 129.946 122.932C126.129 124.099 123.107 125.636 120.88 127.545L118.494 126.113C119.236 123.462 119.607 120.493 119.607 117.206V94ZM233.695 94C235.703 95.6353 237.328 97.0085 238.57 98.1199C240.584 99.9225 242.228 101.99 243.5 104.323C244.879 106.656 245.568 109.307 245.568 112.276C245.568 116.093 244.455 118.956 242.228 120.865C240.107 122.667 237.509 123.568 234.434 123.568C222.24 123.568 215.083 113.813 212.962 94.3026H209.622C209.622 109.466 209.41 120.069 208.986 126.113H212.326C212.75 124.099 213.333 122.614 214.076 121.66C214.924 120.599 215.878 120.228 216.938 120.546C218.423 121.077 220.862 122.19 224.255 123.887C228.39 126.113 233.374 127.227 239.206 127.227C244.72 127.227 249.757 126.272 254.316 124.364C258.876 122.455 262.481 119.698 265.132 116.093C267.889 112.488 269.267 108.352 269.267 103.687C269.267 100.079 268.657 96.8501 267.436 94L233.695 94ZM261.693 67C260.641 60.7497 258.607 55.4827 255.589 51.1989C252.408 46.4273 247.742 44.0415 241.592 44.0415C238.411 44.0415 235.76 44.9428 233.639 46.7454C231.624 48.548 230.617 51.0399 230.617 54.221C230.617 57.8262 231.837 60.9542 234.275 63.6051C235.267 64.6403 236.487 65.7719 237.936 67L210.025 67C209.756 65.556 209.622 64.0533 209.622 62.4918C209.622 55.7055 212.273 50.3506 217.575 46.4273C222.876 42.504 229.345 40.5423 236.979 40.5423C241.009 40.5423 244.72 41.0725 248.113 42.1328C251.506 43.0872 254.104 44.2006 255.907 45.473C256.967 46.2152 257.921 46.5864 258.77 46.5864C259.724 46.5864 260.519 46.1092 261.155 45.1549C261.898 44.0945 262.375 42.61 262.587 40.7014H265.927C265.521 45.8757 265.31 54.6419 265.292 67H261.693ZM289.135 94V110.208C289.135 114.555 288.393 117.577 286.909 119.274C285.424 120.865 282.773 121.66 278.956 121.66V125C290.408 124.576 297.777 124.364 301.064 124.364C304.564 124.364 311.615 124.576 322.219 125V121.66C318.507 121.66 315.856 120.865 314.266 119.274C312.781 117.577 312.039 114.555 312.039 110.208V94H289.135ZM312.039 67H289.135V60.106C289.135 55.2283 288.393 51.6761 286.909 49.4493C285.424 47.2226 282.773 46.1092 278.956 46.1092V42.7691C282.349 43.0872 285.636 43.2462 288.817 43.2462C298.254 43.2462 305.995 42.504 312.039 41.0195V67ZM339.306 94V110.208C339.306 114.555 338.563 117.577 337.079 119.274C335.594 120.865 332.943 121.66 329.126 121.66V125C340.578 124.576 347.895 124.364 351.076 124.364C354.469 124.364 361.043 124.576 370.798 125V121.66C367.617 121.66 365.391 120.865 364.118 119.274C362.846 117.577 362.209 114.555 362.209 110.208V94H339.306ZM362.209 67H339.306V60.106C339.306 55.2283 338.563 51.6761 337.079 49.4493C335.594 47.2226 332.943 46.1092 329.126 46.1092V42.7691C332.519 43.0872 335.806 43.2462 338.988 43.2462C348.425 43.2462 356.165 42.504 362.209 41.0195V55.3343C366.981 45.473 375.676 40.5423 388.294 40.5423C396.353 40.5423 402.185 42.61 405.79 46.7454C407.593 48.7601 408.865 51.358 409.608 54.5391C410.33 57.6369 410.701 61.7905 410.72 67H387.817V60.7422C387.817 56.3947 387.075 53.1076 385.59 50.8808C384.212 48.6541 381.667 47.5407 377.956 47.5407C373.608 47.5407 369.897 49.3433 366.822 52.9485C363.747 56.4477 362.209 60.7952 362.209 65.991V67ZM387.817 94V110.208C387.817 114.555 387.181 117.577 385.908 119.274C384.636 120.865 382.409 121.66 379.228 121.66V125C389.832 124.576 396.724 124.364 399.905 124.364C403.298 124.364 410.297 124.576 420.9 125V121.66C417.189 121.66 414.538 120.865 412.948 119.274C411.463 117.577 410.721 114.555 410.721 110.208V94H387.817ZM436.211 94V99.7104C436.211 105.542 436.582 110.155 437.324 113.548C438.172 116.835 439.71 119.592 441.936 121.819C445.542 125.424 450.844 127.227 457.842 127.227C468.339 127.227 475.603 121.766 479.632 110.844L476.928 109.413C474.277 115.775 470.672 118.956 466.113 118.956C463.674 118.956 461.871 118.32 460.705 117.047C459.645 115.669 459.114 113.389 459.114 110.208V94H436.211ZM492.128 94V110.208C492.128 114.555 491.333 117.577 489.742 119.274C488.258 120.865 485.66 121.66 481.949 121.66V125C492.976 124.576 500.293 124.364 503.898 124.364C506.867 124.364 513.441 124.576 523.621 125V121.66C520.44 121.66 518.213 120.865 516.94 119.274C515.668 117.577 515.032 114.555 515.032 110.208V94H492.128ZM515.032 67H492.128V19.7062C492.128 14.8286 491.333 11.2764 489.742 9.04962C488.258 6.82286 485.66 5.70948 481.949 5.70948V2.36935C485.342 2.68746 488.629 2.84652 491.81 2.84652C501.035 2.84652 508.776 2.10426 515.032 0.619751V55.3343C519.803 45.473 528.445 40.5423 540.958 40.5423C549.228 40.5423 555.06 42.61 558.453 46.7454C560.256 48.7601 561.529 51.411 562.271 54.6981C563.096 57.7943 563.52 61.8949 563.542 67H540.639V60.7422C540.639 56.3947 539.897 53.1076 538.413 50.8808C537.034 48.6541 534.489 47.5407 530.778 47.5407C526.325 47.5407 522.56 49.2903 519.485 52.7895C516.516 56.1826 515.032 60.5301 515.032 65.8319V67ZM540.639 94V110.208C540.639 114.555 540.003 117.577 538.731 119.274C537.458 120.865 535.232 121.66 532.051 121.66V125C542.23 124.576 549.122 124.364 552.728 124.364C555.697 124.364 562.695 124.576 573.723 125V121.66C569.905 121.66 567.255 120.865 565.77 119.274C564.286 117.577 563.543 114.555 563.543 110.208V94H540.639ZM582.116 94C583.292 103.518 586.4 111.042 591.441 116.57C598.121 123.675 607.081 127.227 618.321 127.227C626.486 127.227 633.272 124.841 638.68 120.069C644.194 115.192 648.011 109.307 650.132 102.414L647.269 101.46C641.967 109.943 634.969 114.184 626.274 114.184C622.669 114.184 619.276 113.124 616.094 111.003C613.019 108.883 610.475 105.489 608.46 100.824C607.621 98.7743 606.967 96.4997 606.497 94H582.116ZM649.91 67C647.591 49.3615 637.804 40.5423 620.548 40.5423C608.778 40.5423 599.341 44.3596 592.236 51.9942C588.434 56.024 585.649 61.0259 583.881 67H605.953C606.754 60.0526 608.12 54.7325 610.05 51.0399C612.595 46.2683 615.776 43.8824 619.594 43.8824C623.305 43.8824 626.062 46.6394 627.864 52.1532C629.31 56.2502 630.148 61.1991 630.377 67H649.91ZM459.114 67H436.211V45.9501H422.85V42.7691H436.211V21.7739C445.012 21.7739 452.646 20.0774 459.114 16.6842V42.7691H477.883V45.9501H459.114V67ZM299.633 1.73313C304.086 1.73313 307.586 2.84651 310.13 5.07327C312.781 7.19399 314.107 10.163 314.107 13.9803C314.107 17.7976 312.781 20.8196 310.13 23.0464C307.586 25.1671 304.086 26.2274 299.633 26.2274C295.179 26.2274 291.627 25.1671 288.976 23.0464C286.431 20.8196 285.159 17.7976 285.159 13.9803C285.159 10.163 286.431 7.19399 288.976 5.07327C291.627 2.84651 295.179 1.73313 299.633 1.73313ZM136.786 228.843C138.377 228.207 140.975 227.783 144.58 227.571V224.39C138.748 224.708 130.424 224.867 119.609 224.867H108.316L87.3561 280H90.8951L107.361 236.955V280H132.651V241.249C132.651 237.22 132.916 234.304 133.446 232.502C134.083 230.699 135.196 229.479 136.786 228.843ZM46.9209 224.39L69.9872 280H42.5204L23.54 234.728V280H19.8818V241.249C19.8818 237.22 19.5636 234.304 18.9274 232.502C18.3972 230.699 17.2839 229.479 15.5873 228.843C13.9968 228.207 11.4519 227.783 7.9527 227.571V224.39C11.3459 224.708 15.9584 224.867 21.7904 224.867C31.5457 224.867 39.9226 224.708 46.9209 224.39ZM19.8818 307H23.54V310.915C23.54 317.171 23.8581 321.784 24.4943 324.753C25.1305 327.616 26.509 329.737 28.6297 331.115C30.7504 332.387 34.1966 333.289 38.9682 333.819V337C34.8328 336.682 29.1069 336.523 21.7904 336.523C15.9584 336.523 11.3459 336.682 7.9527 337V333.819C11.4519 333.289 13.9968 332.387 15.5873 331.115C17.2839 329.843 18.3972 327.828 18.9274 325.071C19.5636 322.314 19.8818 318.232 19.8818 312.824V307ZM80.5665 307H53.8403L66.4846 337.159H69.0294L80.5665 307ZM107.361 320.14V307H132.651V320.14C132.651 324.17 132.916 327.086 133.446 328.888C134.083 330.691 135.196 331.91 136.786 332.546C138.483 333.183 141.081 333.607 144.58 333.819V337C138.748 336.682 130.424 336.523 119.609 336.523C108.263 336.523 99.8859 336.682 94.4781 337V333.819C98.2954 333.607 101.052 333.183 102.749 332.546C104.551 331.91 105.771 330.691 106.407 328.888C107.043 327.086 107.361 324.17 107.361 320.14ZM163.787 322.208V307L186.691 307V322.208C186.691 326.555 187.433 329.577 188.918 331.274C190.508 332.865 193.159 333.66 196.87 333.66V337C186.267 336.576 179.215 336.364 175.716 336.364C172.429 336.364 165.06 336.576 153.608 337V333.66C157.425 333.66 160.076 332.865 161.56 331.274C163.045 329.577 163.787 326.555 163.787 322.208ZM213.957 322.208V307H236.861V322.208C236.861 326.555 237.497 329.577 238.77 331.274C240.042 332.865 242.269 333.66 245.45 333.66V337C235.695 336.576 229.121 336.364 225.727 336.364C222.546 336.364 215.23 336.576 203.778 337V333.66C207.595 333.66 210.246 332.865 211.731 331.274C213.215 329.577 213.957 326.555 213.957 322.208ZM213.957 280H236.861V277.991C236.861 272.795 238.399 268.448 241.474 264.949C244.549 261.343 248.26 259.541 252.608 259.541C256.319 259.541 258.864 260.654 260.242 262.881C261.727 265.108 262.469 268.395 262.469 272.742V280H285.373V279.422C285.373 274.015 285.002 269.72 284.259 266.539C283.517 263.358 282.245 260.76 280.442 258.745C276.837 254.61 271.005 252.542 262.946 252.542C250.328 252.542 241.633 257.473 236.861 267.334V253.019C230.817 254.504 223.077 255.246 213.639 255.246C210.458 255.246 207.171 255.087 203.778 254.769V258.109C207.595 258.109 210.246 259.223 211.731 261.449C213.215 263.676 213.957 267.228 213.957 272.106V280ZM262.469 322.208V307H285.373V322.208C285.373 326.555 286.115 329.577 287.599 331.274C289.19 332.865 291.841 333.66 295.552 333.66V337C284.949 336.576 277.95 336.364 274.557 336.364C271.376 336.364 264.484 336.576 253.88 337V333.66C257.061 333.66 259.288 332.865 260.56 331.274C261.833 329.577 262.469 326.555 262.469 322.208ZM312.294 328.411C308.107 323.159 305.451 316.022 304.324 307H328.019C328.52 314.285 329.641 319.884 331.38 323.799C334.031 329.524 337.796 332.387 342.673 332.387C346.172 332.387 349.247 331.115 351.898 328.57C354.655 326.025 356.299 322.579 356.829 318.232V307H379.733V319.504C379.733 324.382 380.475 327.934 381.959 330.161C383.444 332.387 386.095 333.501 389.912 333.501V336.841C386.625 336.523 383.338 336.364 380.051 336.364C370.614 336.364 362.873 337.106 356.829 338.591V324.912C353.224 334.455 346.331 339.227 336.152 339.227C326.185 339.227 318.232 335.622 312.294 328.411ZM356.829 262.563V280H379.733V212.461C373.477 213.945 365.736 214.687 356.511 214.687C353.33 214.687 350.043 214.528 346.65 214.21V217.55C350.361 217.55 352.959 218.664 354.443 220.891C356.034 223.117 356.829 226.67 356.829 231.547V258.586C352.8 254.557 346.915 252.542 339.174 252.542C332.282 252.542 326.132 254.186 320.724 257.473C315.422 260.654 311.233 265.479 308.158 271.947C307.009 274.409 306.083 277.093 305.379 280H328.602C329.336 274.705 330.527 270.324 332.176 266.857C335.251 260.389 339.598 257.155 345.218 257.155C350.308 257.155 354.178 258.957 356.829 262.563ZM408.467 328.57C403.604 323.237 400.54 316.047 399.274 307H423.723C424.173 309.11 424.76 311.051 425.486 312.824C427.5 317.489 430.045 320.883 433.12 323.003C436.301 325.124 439.694 326.184 443.3 326.184C451.995 326.184 458.993 321.943 464.295 313.46L467.158 314.414C465.037 321.307 461.22 327.192 455.706 332.069C450.298 336.841 443.512 339.227 435.347 339.227C424.107 339.227 415.147 335.675 408.467 328.57ZM437.574 252.542C455.153 252.542 464.981 261.695 467.058 280H447.436C447.267 273.766 446.419 268.484 444.89 264.153C443.088 258.639 440.331 255.882 436.619 255.882C432.802 255.882 429.621 258.268 427.076 263.04C425.054 266.908 423.652 272.561 422.869 280H400.623C402.369 273.582 405.249 268.247 409.262 263.994C416.367 256.36 425.804 252.542 437.574 252.542ZM487.502 328.411C483.315 323.159 480.659 316.022 479.532 307L503.227 307C503.728 314.285 504.848 319.884 506.588 323.799C509.239 329.524 513.003 332.387 517.881 332.387C521.38 332.387 524.455 331.115 527.106 328.57C529.863 326.025 531.507 322.579 532.037 318.232V307H554.941V319.504C554.941 324.382 555.683 327.934 557.167 330.161C558.652 332.387 561.303 333.501 565.12 333.501V336.841C561.833 336.523 558.546 336.364 555.259 336.364C545.822 336.364 538.081 337.106 532.037 338.591V324.912C528.432 334.455 521.539 339.227 511.36 339.227C501.392 339.227 493.44 335.622 487.502 328.411ZM480.586 280L503.81 280C504.544 274.705 505.735 270.324 507.383 266.857C510.459 260.389 514.806 257.155 520.426 257.155C525.516 257.155 529.386 258.957 532.037 262.563V280H554.941V212.461C548.685 213.945 540.944 214.687 531.719 214.687C528.538 214.687 525.251 214.528 521.857 214.21V217.55C525.569 217.55 528.167 218.664 529.651 220.891C531.242 223.117 532.037 226.67 532.037 231.547V258.586C528.008 254.557 522.122 252.542 514.382 252.542C507.49 252.542 501.339 254.186 495.932 257.473C490.63 260.654 486.441 265.479 483.366 271.947C482.217 274.409 481.291 277.093 480.586 280ZM163.787 280L186.691 280V253.019C180.647 254.504 172.906 255.246 163.469 255.246C160.288 255.246 157.001 255.087 153.608 254.769V258.109C157.425 258.109 160.076 259.223 161.56 261.449C163.045 263.676 163.787 267.228 163.787 272.106V280ZM174.285 213.733C178.738 213.733 182.237 214.846 184.782 217.073C187.433 219.194 188.759 222.163 188.759 225.98C188.759 229.798 187.433 232.82 184.782 235.046C182.237 237.167 178.738 238.227 174.285 238.227C169.831 238.227 166.279 237.167 163.628 235.046C161.083 232.82 159.811 229.798 159.811 225.98C159.811 222.163 161.083 219.194 163.628 217.073C166.279 214.846 169.831 213.733 174.285 213.733Z" fill="white"/>
</svg>
